<svg width="74" height="85" viewBox="0 0 74 85" fill="none" xmlns="http://www.w3.org/2000/svg">
<path d="M36.5479 0L51.155 16.8669H21.9407L36.5479 0Z" fill="white"/>
<path d="M0 21.138L21.9107 16.9212L7.30357 42.2216L0 21.138Z" fill="white"/>
<path d="M0 63.4717L21.9107 67.6884L7.30357 42.3881L0 63.4717Z" fill="white"/>
<path d="M73.1331 21.138L51.2224 16.9212L65.8296 42.2216L73.1331 21.138Z" fill="white"/>
<path d="M73.1331 63.3891L51.2224 67.6058L65.8296 42.3055L73.1331 63.3891Z" fill="white"/>
<path d="M36.5479 84.665L51.155 67.7982H21.9407L36.5479 84.665Z" fill="white"/>
<path d="M29.2322 35.303H19.5123L29.2322 41.5107V35.303Z" fill="white"/>
<path d="M43.5318 35.303H53.2517L43.5318 41.5107V35.303Z" fill="white"/>
<path d="M43.8574 49.7619H29.5634L36.6642 55.3978L43.8574 49.7619Z" fill="white"/>
</svg>
